
<svg width="36px" height="27px" viewBox="0 0 36 27" version="1.1" xmlns="http://www.w3.org/2000/svg" xmlns:xlink="http://www.w3.org/1999/xlink">
    <g id="Page-1" stroke="none" stroke-width="1" fill="none" fill-rule="evenodd">
        <g id="spectropharma-1920-–-contacts-overlay" transform="translate(-718.000000, -1054.000000)" fill="#FFFFFF" fill-rule="nonzero">
            <g id="Scroll_Group_1" transform="translate(554.000000, 196.000000)">
                <g id="contact_number" transform="translate(164.000000, 858.000000)">
                    <path d="M33,0 L3,0 C1.3451972,0.00494220167 0.00494220167,1.3451972 0,3 L0,24 C0.00494220167,25.6548028 1.3451972,26.9950578 3,27 L33,27 C34.6509934,26.9917449 35.9850206,25.651014 35.985,24 L36,3 C35.9950578,1.3451972 34.6548028,0.00494220167 33,0 Z M11.999996,4.49999598 C14.4852814,4.49999598 16.499996,6.51471863 16.499996,8.99999598 C16.499996,11.4852814 14.4852814,13.499996 11.999996,13.499996 C9.51471863,13.499996 7.49999598,11.4852814 7.49999598,8.99999598 C7.49840486,7.8060375 7.97199838,6.66051785 8.81625811,5.81625811 C9.66051785,4.97199838 10.8060375,4.49840486 11.999996,4.49999598 L11.999996,4.49999598 Z M21,22.5 L3,22.5 L3,21 C3,18 9,16.35 12,16.35 C15,16.35 21,18 21,21 L21,22.5 Z M26.775,16.5 L29.235,16.5 L31.5,19.5 L28.515,22.485 C26.5277293,20.9958008 25.0881292,18.8917698 24.42,16.5 C23.8599848,14.5392021 23.8599848,12.4607979 24.42,10.5 C25.0842531,8.10642532 26.5246428,6.00124036 28.515,4.515 L31.5,7.5 L29.235,10.5 L26.775,10.5 C26.075006,12.4387511 26.075006,14.5612489 26.775,16.5 L26.775,16.5 Z" id="Icon_material-contact-phone"></path>
                </g>
            </g>
        </g>
    </g>
</svg>