
<svg width="1281px" height="1256px" viewBox="0 0 1281 1256" version="1.1" xmlns="http://www.w3.org/2000/svg" xmlns:xlink="http://www.w3.org/1999/xlink">
    <g id="Page-1" stroke="none" stroke-width="1" fill="none" fill-rule="evenodd" opacity="0.242">
        <g id="spectropharma-1920-–-homepage" transform="translate(-513.000000, -138.000000)">
            <g id="Splash_Page" transform="translate(512.000000, 0.000000)">
                <g id="main_grafx" transform="translate(0.711000, 137.775000)">
                    <g id="Path_207" transform="translate(0.488000, 0.297000)">
                        <path d="M533.222,5.831 C258.411,40.351 136.067,182.2 61.25,333.159 C-1.35,459.499 -5.65,613.321 13.683,738.976 C32.322,860.152 89.383,1029.776 218.92,1135.707 C394.239,1279.087 546.271,1261.155 753.911,1233.486 C1006.766,1199.797 1138.419,1049.44 1213.177,897.536 C1278.064,765.69 1309.3,607.79 1232.7,366.884 C1194.558,246.923 1074.847,175.284 952.543,129.162 C804.264,73.245 665.173,-10.746 533.222,5.831 Z" id="Path"></path>
                        <path d="M567.940186,3.70336855 C556.305176,3.70336855 544.746826,4.38330078 533.222168,5.83105469 C258.411255,40.350708 136.067261,182.204102 61.2504883,333.158569 C-1.34924316,459.498779 -5.64575195,613.321106 13.6831055,738.975098 C32.3218994,860.151123 89.387085,1029.77722 218.920166,1135.70557 C329.746704,1226.34192 431.291992,1252.52136 543.436646,1252.52136 C608.696411,1252.52136 677.529175,1243.66309 753.911621,1233.48511 C1006.76685,1199.7959 1138.41992,1049.43945 1213.17749,897.534546 C1278.0636,765.689941 1309.29541,607.790405 1232.7019,366.883606 C1194.55945,246.922607 1074.84888,175.285034 952.544922,129.161377 C817.215454,78.1289063 689.518799,3.70336855 567.940186,3.70336855 M567.918945,0.703369141 L567.94043,0.703369141 C578.835327,0.703369141 590.174927,1.3092041 601.644409,2.50195313 C612.583984,3.63928223 624.010986,5.34997559 635.60791,7.58630371 C657.025146,11.7163086 679.509644,17.6702881 704.346313,25.788208 C725.074341,32.5634766 747.938232,41.0368652 774.244385,51.6931152 C797.736816,61.2094727 821.963623,71.638916 845.392822,81.7249756 C880.599609,96.8811035 917.004883,112.553101 953.603516,126.35437 C969.471924,132.338745 984.859375,138.595581 999.338867,144.951294 C1014.89429,151.779297 1029.8988,158.939209 1043.93579,166.2323 C1058.88562,173.999634 1073.19653,182.156128 1086.47131,190.474976 C1100.51733,199.277466 1113.82324,208.524902 1126.01978,217.960815 C1138.85937,227.894287 1150.84729,238.328613 1161.65039,248.974243 C1172.97607,260.134766 1183.32935,271.851929 1192.42236,283.800293 C1201.92065,296.28125 1210.31787,309.374146 1217.38062,322.71521 C1224.73328,336.60376 1230.84998,351.158264 1235.56104,365.974609 C1244.97229,395.575928 1253.00598,424.778748 1259.43872,452.772095 C1265.67529,479.910278 1270.59509,506.731079 1274.06201,532.489563 C1277.41187,557.379944 1279.50745,582.041565 1280.29053,605.789612 C1281.04419,628.643066 1280.60522,651.366394 1278.98645,673.327942 C1277.43677,694.351257 1274.75513,715.354736 1271.01587,735.754944 C1267.4613,755.148743 1262.83057,774.650452 1257.2522,793.718262 C1251.99878,811.675781 1245.71509,829.894226 1238.57544,847.867798 C1231.94165,864.568115 1224.30212,881.724121 1215.86914,898.859253 C1206.14026,918.62793 1195.72827,937.767761 1184.92212,955.746948 C1173.26953,975.134521 1160.79395,993.780396 1147.84253,1011.16638 C1134.00696,1029.73877 1119.21167,1047.43323 1103.86731,1063.7583 C1095.84326,1072.29504 1087.49561,1080.64209 1079.05627,1088.56738 C1070.37842,1096.7168 1061.35522,1104.65344 1052.23743,1112.1571 C1042.87463,1119.86243 1033.14453,1127.3313 1023.31714,1134.35608 C1013.23828,1141.56091 1002.76978,1148.50415 992.202637,1154.99292 C981.376709,1161.64063 970.13916,1168.00061 958.801514,1173.89648 C947.198608,1179.9303 935.160767,1185.64954 923.022705,1190.89563 C910.611938,1196.2594 897.743652,1201.28088 884.774658,1205.82056 C871.526367,1210.45813 857.796631,1214.72461 843.967041,1218.50171 C829.850464,1222.35706 815.22876,1225.81213 800.508423,1228.77039 C785.493408,1231.78809 769.949341,1234.37476 754.307739,1236.45874 C714.808838,1241.72205 679.30542,1246.35925 644.80127,1249.80505 C626.145142,1251.66846 609.295654,1253.03174 593.289673,1253.97314 C575.575806,1255.01489 559.268677,1255.52148 543.436646,1255.52148 C529.050903,1255.52148 514.990479,1255.0813 501.64563,1254.21313 C487.613647,1253.30042 473.796997,1251.87756 460.579468,1249.98438 C446.804932,1248.01147 433.156738,1245.45276 420.013916,1242.37964 C406.410156,1239.19873 392.856445,1235.35193 379.729492,1230.94629 C323.703735,1212.14282 270.481323,1181.7489 217.020996,1138.02795 C201.178467,1125.07239 185.856812,1110.68359 171.481079,1095.26123 C157.817505,1080.60242 144.669678,1064.64661 132.402832,1047.83679 C120.781006,1031.91077 109.669678,1014.83447 99.3773193,997.082397 C89.6590576,980.320435 80.4459229,962.568115 71.9941406,944.318848 C56.5283203,910.925598 43.2463379,875.162109 32.5169678,838.021729 C23.1018066,805.430908 15.7675781,772.260254 10.7178955,739.431274 C5.66491699,706.582581 2.44946289,673.277283 1.16040039,640.440247 C-0.237182617,604.838074 0.636230469,569.715088 3.75646973,536.047241 C5.41064453,518.197449 7.72546387,500.499756 10.6365967,483.44574 C13.6661377,465.697937 17.4179688,448.200562 21.7878418,431.440247 C26.3308105,414.015442 31.6589355,396.937927 37.6245117,380.682068 C43.8190918,363.801575 50.8636475,347.364258 58.5622559,331.826599 C68.5477295,311.679199 78.5588379,293.295776 89.1674805,275.624878 C94.8094482,266.227295 100.656128,256.995728 106.545288,248.186768 C112.687012,239.000244 119.068726,229.982788 125.513672,221.384766 C132.207764,212.454102 139.176758,203.699951 146.227295,195.365479 C153.526489,186.736938 161.134644,178.295532 168.840576,170.275879 C176.796509,161.99646 185.095581,153.917603 193.507324,146.263916 C202.171265,138.380737 211.212402,130.714111 220.379639,123.477051 C229.802734,116.038086 239.637085,108.833252 249.609497,102.06311 C259.842285,95.1160889 270.520508,88.4227295 281.347412,82.1690674 C292.439941,75.762085 304.012573,69.6293945 315.743652,63.9414063 C327.745972,58.1219482 340.263306,52.598877 352.947754,47.5256348 C365.909912,42.3410645 379.422485,37.4760742 393.109619,33.0657959 C407.081909,28.5635986 421.639893,24.4050293 436.379639,20.7055664 C451.412109,16.9327393 467.06665,13.5285645 482.908569,10.5877686 C499.051636,7.59106445 515.85376,4.98925781 532.848267,2.85437012 C544.209839,1.42712402 556.009277,0.703369141 567.918945,0.703369141 Z" id="Shape" fill="#FFFFFF" fill-rule="nonzero"></path>
                    </g>
                    <g id="Path_208" transform="translate(52.865000, 92.463000)">
                        <path d="M487.582,5.469 C238.323,37.5 126.526,162.517 57.738,295.192 C0.183,406.235 -4.718,540.963 11.974,650.87 C28.074,756.858 78.674,905.023 195.361,996.933 C353.298,1121.341 491.187,1104.641 679.532,1079.053 C908.891,1047.897 1029.18,915.371 1097.921,781.861 C1157.585,665.983 1186.921,527.51 1119.089,317.055 C1085.31,212.255 977.297,150.31 866.767,110.722 C732.761,62.727 607.266,-9.911 487.582,5.469 Z" id="Path"></path>
                        <path d="M521.08728,3.37109375 C509.866699,3.37109375 498.700562,4.04016113 487.58252,5.46887207 C238.32251,37.4968262 126.525635,162.517212 57.7382812,295.192444 C0.182861328,406.235474 -4.71813965,540.963196 11.9741211,650.869934 C28.0715332,756.857666 78.6733398,905.022705 195.361328,996.932617 C293.62854,1074.33813 384.138672,1097.11841 483.865723,1097.11841 C544.421875,1097.11841 608.374023,1088.72009 679.532104,1079.05273 C908.891602,1047.89673 1029.1803,915.370361 1097.92114,781.860413 C1157.58545,665.982239 1186.92041,527.509338 1119.08887,317.054443 C1085.31018,212.256836 977.297363,150.309937 866.766602,110.721069 C745.209473,67.1851807 630.653564,3.37109375 521.08728,3.37109375 M521.08728,0.37097168 C530.887939,0.37097168 541.084595,0.887329102 551.393799,1.90515137 C561.226196,2.87609863 571.492798,4.33642578 581.908447,6.24560547 C601.142456,9.77124023 621.32251,14.8540039 643.601562,21.7844238 C662.193115,27.567627 682.691528,34.800293 706.268311,43.8956299 C727.320923,52.0172119 749.02417,60.9168701 770.012695,69.5234375 C801.817139,82.5655518 834.70459,96.0513916 867.778076,107.896729 C882.123291,113.034668 896.031006,118.414673 909.115234,123.887329 C923.172363,129.766846 936.728271,135.94104 949.406616,142.238281 C962.9104,148.945679 975.833008,155.998291 987.815063,163.200317 C1000.49524,170.821777 1012.50183,178.838745 1023.50146,187.02832 C1035.08325,195.651123 1045.88965,204.719482 1055.62048,213.981079 C1065.82446,223.692871 1075.14294,233.900146 1083.31677,244.318848 C1091.85718,255.204712 1099.39453,266.635498 1105.71924,278.293335 C1112.30469,290.431946 1117.76355,303.16333 1121.94434,316.134094 C1130.28308,342.006409 1137.37573,367.539001 1143.02478,392.022888 C1148.50183,415.761047 1152.78735,439.230103 1155.76245,461.778259 C1158.63745,483.56842 1160.37622,505.166748 1160.93079,525.973328 C1161.46448,545.997498 1160.91772,565.915466 1159.30554,585.17395 C1157.76221,603.610107 1155.19214,622.036133 1151.66699,639.94043 C1148.31592,656.96106 1143.98828,674.083008 1138.8042,690.83075 C1133.922,706.602112 1128.104,722.608704 1121.51147,738.405945 C1115.3866,753.082764 1108.34705,768.164917 1100.58838,783.233765 C1091.63794,800.61731 1082.07214,817.454407 1072.15674,833.277466 C1061.46436,850.340454 1050.03076,866.758728 1038.17371,882.076294 C1025.50757,898.439209 1011.97681,914.039185 997.957275,928.442871 C983.088379,943.718994 967.2323,958.099487 950.829346,971.18457 C942.290283,977.996338 933.419678,984.603638 924.463989,990.822266 C915.279297,997.200195 905.74292,1003.35156 896.120361,1009.10535 C886.262451,1014.99963 876.032959,1020.6449 865.716064,1025.88416 C855.157959,1031.24585 844.207764,1036.33472 833.169678,1041.00977 C821.884155,1045.78967 810.186035,1050.27258 798.399902,1054.33411 C786.359985,1058.48315 773.88623,1062.31042 761.325195,1065.70935 C748.503906,1069.17883 735.227295,1072.3009 721.864502,1074.98877 C708.234375,1077.7301 694.127686,1080.09766 679.936035,1082.02551 C643.132202,1087.02551 610.060791,1091.43005 578.027344,1094.69531 C560.68396,1096.46338 545.026123,1097.75671 530.159058,1098.64978 C513.705566,1099.63794 498.562744,1100.11841 483.865723,1100.11841 C457.447021,1100.11841 433.324585,1098.54919 410.119995,1095.32092 C397.862793,1093.6156 385.711182,1091.40637 374.003174,1088.75452 C361.896118,1086.01221 349.829956,1082.69873 338.140259,1078.90613 C288.300659,1062.73633 240.98999,1036.69348 193.505127,999.289185 C179.220459,988.037964 165.41748,975.526855 152.479492,962.103638 C140.182129,949.344971 128.361206,935.446045 117.345093,920.792969 C106.908447,906.910889 96.9425049,892.017334 87.723999,876.526245 C79.0198975,861.899658 70.7805176,846.4021 63.2347412,830.464111 C49.4279785,801.301758 37.6171875,770.048401 28.1306152,737.572083 C19.8061523,709.074707 13.3724365,680.055481 9.00817871,651.320435 C4.64172363,622.570251 1.9440918,593.407776 0.990600586,564.643188 C-0.0432128906,533.455322 0.979125977,502.672119 4.0291748,473.149048 C5.64648438,457.495789 7.86169434,441.971497 10.6135254,427.007324 C13.4775391,411.433655 16.994751,396.07489 21.0678711,381.357483 C25.3024902,366.056396 30.2469482,351.054443 35.7640381,336.76825 C41.4932861,321.932861 47.9903564,307.480286 55.074707,293.811951 C64.2601318,276.09552 73.4570313,259.924133 83.1912842,244.373047 C93.7519531,227.501465 104.959351,211.432129 116.502197,196.611328 C122.630493,188.742554 129.006714,181.026733 135.454346,173.677856 C142.129028,166.069824 149.082886,158.623779 156.122803,151.546753 C163.390625,144.240234 170.968262,137.107544 178.645386,130.346558 C186.552612,123.382935 194.800293,116.606689 203.15918,110.205933 C211.751587,103.626831 220.714966,97.2502441 229.800415,91.2536621 C239.123047,85.1004639 248.8479,79.166748 258.704468,73.6171875 C268.802612,67.9316406 279.333862,62.4835205 290.005981,57.4239502 C300.924561,52.2474365 312.307861,47.3273926 323.839722,42.7999268 C335.623657,38.1738281 347.904297,33.8238525 360.340454,29.8708496 C373.035034,25.8358154 386.258423,22.0977783 399.643433,18.7608643 C413.293823,15.357666 427.505737,12.2734375 441.884399,9.59375 C456.536133,6.86328125 471.782471,4.47436523 487.200195,2.49328613 C498.158569,1.08508301 509.559937,0.37097168 521.08728,0.37097168 Z" id="Shape" fill="#FFFFFF" fill-rule="nonzero"></path>
                    </g>
                    <g id="Path_209" transform="translate(123.128000, 135.290000)">
                        <path d="M542.359,9.573 C324.846,-17.227 198.449,51.549 115.849,138.46 C36.457,222 10.556,337.917 4.954,432.876 C-0.385,523.376 8.278,666.835 70.869,781.786 C144.95,917.841 246.269,974.037 393.874,984.158 C559.96,995.549 700.564,948.295 806.36,864.508 C905.76,785.789 983.494,664.854 996.148,435.349 C1002.267,324.382 923.231,232.888 831.224,165.3 C729.924,90.88 626.733,19.967 542.359,9.573 Z" id="Path"></path>
                        <path d="M450.913696,3.70239258 C288.079834,3.70239258 186.127563,64.5133057 115.848389,138.459656 C36.4570313,222.00415 10.5562744,337.916748 4.95385742,432.876404 C-0.385009766,523.374268 8.27783203,666.835144 70.8693848,781.786255 C144.950562,917.841675 246.27002,974.037476 393.87439,984.157959 C410.306641,985.284912 426.501221,985.838013 442.425537,985.838013 C587.453613,985.838013 711.031738,940.005615 806.360596,864.508423 C905.755859,785.789307 983.494263,664.854248 996.14917,435.348999 C1002.26807,324.381531 923.231934,232.887634 831.225586,165.300049 C729.924072,90.880127 626.732666,19.9671631 542.358887,9.57263184 C509.912476,5.5748291 479.462158,3.70239258 450.913696,3.70239258 M450.88208,0.702392578 L450.913818,0.702392578 C465.348389,0.702392578 480.303955,1.18835449 495.364746,2.14489746 C510.759644,3.12268066 526.694214,4.61987305 542.72583,6.59509277 C553.154541,7.87988281 564.229492,10.1375732 575.643066,13.3052979 C586.536133,16.3286133 598.082275,20.2768555 609.960693,25.0405273 C621.237305,29.5627441 633.18335,34.9685059 645.467285,41.107666 C657.039551,46.8912354 669.312744,53.5266113 681.945801,60.8294678 C732.010986,89.7711182 784.133545,126.982056 833.001709,162.882263 C844.849609,171.585754 856.25708,180.527405 866.906738,189.458679 C878.175293,198.908997 888.895142,208.598999 898.768555,218.259644 C909.175781,228.442505 918.92334,238.867676 927.740479,249.245422 C937.003662,260.14801 945.492432,271.295776 952.971191,282.379028 C960.805298,293.989014 967.746094,305.84729 973.601074,317.624268 C979.717773,329.927917 984.817871,342.4823 988.759766,354.938904 C992.866943,367.917542 995.830078,381.148376 997.567139,394.263794 C999.371826,407.890625 999.902588,421.769287 999.144653,435.51416 C997.588013,463.743408 994.985352,491.114258 991.409058,516.866516 C987.936035,541.874756 983.442261,566.093262 978.052734,588.849304 C972.832031,610.891174 966.615479,632.216797 959.575439,652.233887 C952.778076,671.561279 945.007568,690.251526 936.480469,707.785522 C928.279907,724.647644 919.127197,740.95813 909.276367,756.264038 C899.851807,770.907776 889.490723,785.093384 878.481201,798.42688 C868.017822,811.098755 856.625488,823.415771 844.620361,835.035889 C833.312012,845.981567 821.066284,856.688721 808.223267,866.860107 C759.236084,905.656128 703.984619,935.755615 644.003296,956.322388 C628.658203,961.583984 612.811768,966.275024 596.904175,970.264893 C580.78833,974.307007 564.184082,977.73645 547.552856,980.457642 C530.694336,983.216187 513.360229,985.320312 496.032349,986.711548 C478.458984,988.122559 460.422974,988.838013 442.425537,988.838013 C426.39624,988.838013 409.99231,988.270386 393.669189,987.150879 C375.001221,985.87085 357.002808,983.834473 340.173706,981.098145 C322.945312,978.296753 306.313721,974.660034 290.741211,970.28894 C274.869751,965.833984 259.534668,960.458252 245.161743,954.311157 C230.572876,948.071533 216.46814,940.820557 203.239624,932.759521 C189.864136,924.609009 176.926758,915.351929 164.786743,905.244995 C152.556641,895.06311 140.72168,883.674316 129.610474,871.394897 C118.453369,859.064697 107.650391,845.421265 97.5018311,830.843628 C87.34021,816.247803 77.4932861,800.225037 68.2346191,783.220886 C60.5909424,769.182983 53.4713135,754.185303 47.0733643,738.644409 C41.0163574,723.931763 35.4558105,708.366516 30.5457764,692.381287 C21.5509033,663.09729 14.4605713,631.548279 9.47155762,598.610657 C5.11035156,569.817749 2.32775879,539.842896 1.2010498,509.518799 C0.233276367,483.475525 0.48840332,457.629883 1.95910645,432.699768 C5.21716309,377.475403 14.6125488,326.247253 29.8842773,280.438538 C34.2845459,267.23938 39.236084,254.336121 44.6011963,242.087036 C50.2484131,229.193787 56.5081787,216.673157 63.2067871,204.872925 C70.2330322,192.495544 77.9351807,180.570374 86.0992432,169.428772 C94.6357422,157.779053 103.913208,146.664124 113.673828,136.393005 C122.766479,126.825806 132.212524,117.676392 141.749268,109.198975 C151.890625,100.184326 162.464233,91.6357422 173.176758,83.7911377 C184.484863,75.5101318 196.300659,67.7546387 208.295776,60.7398682 C220.885742,53.3774414 234.056274,46.6068115 247.441528,40.616333 C261.426025,34.3575439 276.0625,28.7631836 290.944702,23.9886475 C306.43457,19.019165 322.647583,14.7908936 339.133301,11.4215088 C356.238892,7.92553711 374.138794,5.25170898 392.335571,3.47436523 C411.167603,1.63500977 430.865601,0.702392578 450.88208,0.702392578 Z" id="Shape" fill="#FFFFFF" fill-rule="nonzero"></path>
                    </g>
                </g>
            </g>
        </g>
    </g>
</svg>