
<svg width="27px" height="30px" viewBox="0 0 27 30" version="1.1" xmlns="http://www.w3.org/2000/svg" xmlns:xlink="http://www.w3.org/1999/xlink">
    <g id="Page-1" stroke="none" stroke-width="1" fill="none" fill-rule="evenodd">
        <g id="spectropharma-1920-–-contacts-overlay" transform="translate(-725.000000, -898.000000)" fill="#FFFFFF" fill-rule="nonzero">
            <g id="Scroll_Group_1" transform="translate(554.000000, 196.000000)">
                <g id="location" transform="translate(138.000000, 682.000000)">
                    <path d="M51,34.25 L51,25.25 L46.5,20.75 L42,25.25 L42,28.25 L33,28.25 L33,49.25 L60,49.25 L60,34.25 L51,34.25 Z M39,46.25 L36,46.25 L36,43.25 L39,43.25 L39,46.25 Z M39,40.25 L36,40.25 L36,37.25 L39,37.25 L39,40.25 Z M39,34.25 L36,34.25 L36,31.25 L39,31.25 L39,34.25 Z M48,46.25 L45,46.25 L45,43.25 L48,43.25 L48,46.25 Z M48,40.25 L45,40.25 L45,37.25 L48,37.25 L48,40.25 Z M48,34.25 L45,34.25 L45,31.25 L48,31.25 L48,34.25 Z M48,28.25 L45,28.25 L45,25.25 L48,25.25 L48,28.25 Z M57,46.25 L54,46.25 L54,43.25 L57,43.25 L57,46.25 Z M57,40.25 L54,40.25 L54,37.25 L57,37.25 L57,40.25 Z" id="Icon_material-location-city"></path>
                </g>
            </g>
        </g>
    </g>
</svg>