
<svg width="154px" height="93px" viewBox="0 0 154 93" version="1.1" xmlns="http://www.w3.org/2000/svg" xmlns:xlink="http://www.w3.org/1999/xlink">
    <g id="Page-1" stroke="none" stroke-width="1" fill="none" fill-rule="evenodd">
        <g id="spectropharma-1920-–-strategy" transform="translate(-520.000000, -719.000000)">
            <g id="strategy" transform="translate(104.000000, 240.000000)">
                <g id="body_copy" transform="translate(415.000000, 100.000000)">
                    <g id="commercial" transform="translate(1.000000, 367.000000)">
                        <g id="Group-4" transform="translate(0.000000, 12.000000)">
                            <g id="_1-3" transform="translate(109.000000, -0.000000)">
                                <g id="Rectangle_55-2-2" fill="#1545C0" fill-rule="nonzero">
                                    <rect id="Rectangle_55-2" x="-7.10542736e-15" y="-1.42108547e-14" width="45" height="93"></rect>
                                </g>
                                <g id="_2" transform="translate(16.000000, 31.000000)" fill="#FFFFFF" font-family="Helvetica" font-size="20" font-weight="normal">
                                    <text id="2">
                                        <tspan x="0.18" y="19">2</tspan>
                                    </text>
                                </g>
                            </g>
                            <g id="Group_227" transform="translate(-0.000000, 4.913000)" fill="#1444BF" fill-rule="nonzero">
                                <g id="Group_223">
                                    <g id="Group_222">
                                        <path d="M1.466,83.174 L13.192,83.174 C13.5807155,83.174 13.9534956,83.0195151 14.2282651,82.7445579 C14.5030347,82.4696008 14.6572653,82.0967154 14.657,81.708 L14.657,80.243 L18.713,80.243 C22.6914211,82.1671971 27.0526851,83.1690675 31.472,83.174 L42.506,83.174 C44.9360529,83.174 46.906,81.2040529 46.906,78.774 C46.9012613,78.0165002 46.6989285,77.2733494 46.319,76.618 C48.1194521,75.4951021 48.8491458,73.2384565 48.047,71.274 C49.4335981,70.8979123 50.5480127,69.8664344 51.03,68.513 L76.217,68.513 C79.454655,68.5124478 82.079,65.887655 82.079,62.65 L82.079,17.218 C82.079,13.980345 79.454655,11.3555522 76.217,11.355 L47.826,11.355 L58.137,2.19 L56.188,0 L43.971,10.859 L31.755,0 L29.805,2.19 L40.116,11.355 L11.726,11.355 C8.48912615,11.3566563 5.86599958,13.9811257 5.866,17.218 L5.866,56.791 L1.466,56.791 C0.656579132,56.7915516 0,57.4475791 0,58.257 L0,81.708 C0,82.5176494 0.656350557,83.174 1.466,83.174 M46.903,68.517 L38.103,68.517 L38.103,71.448 L43.966,71.448 C44.7756494,71.448 45.432,72.1043506 45.432,72.914 C45.432,73.7236494 44.7756494,74.38 43.966,74.38 L35.177,74.38 L35.177,77.311 L42.506,77.311 C43.3143168,77.3109992 43.9698965,77.965684 43.971,78.774 C43.9717964,79.1631537 43.8178323,79.536656 43.5430339,79.8122047 C43.2682355,80.0877533 42.8951544,80.2427354 42.506,80.243 L31.472,80.243 C27.3887696,80.2363012 23.3626919,79.2830087 19.71,77.458 C19.5055401,77.3592259 19.2810592,77.308923 19.054,77.311 L14.654,77.311 L14.654,62.654 L16.706,62.654 C18.6665463,62.6560453 20.4978605,61.6761908 21.584,60.044 L24.255,56.037 C25.7534542,53.7904634 28.7892688,53.1838378 31.036,54.682 C31.7431856,55.154327 32.3152693,55.8025735 32.696,56.563 L32.81,56.791 L29.31,56.791 L29.31,59.723 L43.971,59.723 C44.7806494,59.723 45.437,60.3793506 45.437,61.189 C45.4370001,61.5777155 45.2825151,61.9504956 45.0075579,62.2252651 C44.7326008,62.5000347 44.3597154,62.6542653 43.971,62.654 L35.177,62.654 L35.177,65.586 L46.903,65.586 C47.711316,65.5871035 48.3660003,66.2426832 48.3660003,67.051 C48.3660003,67.4397154 48.2120347,67.8126008 47.9372651,68.0875579 C47.6624956,68.3625151 47.2897155,68.5170001 46.901,68.517 M51.301,46.307 L39.574,44.626 L39.574,33.78 L51.3,32.105 L51.301,46.307 Z M36.643,44.213 L33.711,43.795 L33.711,34.611 L36.643,34.193 L36.643,44.213 Z M29.314,43.6 C26.8839471,43.6 24.914,41.6300529 24.914,39.2 C24.914,36.7699471 26.8839471,34.8 29.314,34.8 L30.78,34.8 L30.78,43.594 L29.314,43.6 Z M36.914,47.213 L39.188,56.791 L36.35,56.791 L34.136,46.825 L36.914,47.213 Z M8.796,17.213 C8.796,15.5937011 10.1087011,14.281 11.728,14.281 L76.217,14.281 C77.8359083,14.2815522 79.148,15.5940916 79.148,17.213 L79.148,62.654 C79.148,64.2729084 77.8359083,65.5854478 76.217,65.586 L51.03,65.586 C50.5473519,64.232426 49.4327782,63.200773 48.046,62.824 C48.4837389,61.7472327 48.4757393,60.5406643 48.0237616,59.4697959 C47.5717838,58.3989275 46.7128624,57.5515047 45.636,57.114 C45.1072356,56.8992509 44.5417073,56.7895418 43.971,56.791 L42.199,56.791 L40.031,47.659 L51.52,49.3 C52.2319711,51.6134579 54.6844885,52.9117968 56.998,52.2 C58.8451931,51.6341869 60.1042748,49.9258974 60.098,47.994 L60.098,30.409 C60.1022509,29.2461159 59.6443015,28.129187 58.8249249,27.3039965 C58.0055482,26.478806 56.8918851,26.0129711 55.729,26.009 C53.7991041,26.0047182 52.0936079,27.2635368 51.529,29.109 L32.139,31.874 L29.314,31.874 C25.2668574,31.874 21.986,35.1548574 21.986,39.202 C21.986,43.2493044 25.2666956,46.5304478 29.314,46.531 L31.073,46.531 L32.291,52.012 C28.7153936,49.9032669 24.1151195,50.9570664 21.814,54.412 L19.144,58.418 C18.6009536,59.2322055 17.6876859,59.7220321 16.709,59.724 L14.657,59.724 L14.657,58.258 C14.6570002,57.4487409 14.0012589,56.792552 13.192,56.792 L8.792,56.792 L8.796,17.213 Z M54.231,30.409 C54.231,29.5993506 54.8873506,28.9429969 55.697,28.9429969 C56.0863269,28.9422033 56.4599809,29.0963046 56.7355584,29.3713194 C57.0111359,29.6463341 57.166,30.0196723 57.166,30.409 L57.166,47.997 C57.166,48.8066494 56.5096494,49.463 55.7,49.463 C54.8903506,49.463 54.234,48.8066494 54.234,47.997 L54.231,30.409 Z M2.932,59.723 L11.726,59.723 L11.726,80.243 L2.932,80.243 L2.932,59.723 Z" id="Path_331"></path>
                                    </g>
                                </g>
                                <polygon id="Path_333" points="5.863 74.38 8.794 74.38 8.794 77.311 5.863 77.311"></polygon>
                                <polygon id="Path_334" points="71.819 36.274 74.75 36.274 74.75 39.205 71.819 39.205"></polygon>
                                <polygon id="Path_335" points="71.819 42.134 74.75 42.134 74.75 45.065 71.819 45.065"></polygon>
                                <polygon id="Path_336" points="71.819 47.997 74.75 47.997 74.75 50.928 71.819 50.928"></polygon>
                                <g id="Group_226" transform="translate(13.000000, 18.000000)">
                                    <g id="Group_224" transform="translate(54.422000, 34.860000)">
                                        <path d="M0,5.397 C0,7.8270529 1.9699471,9.797 4.4,9.797 C6.82770942,9.79368948 8.794,7.82471168 8.794,5.397 C8.794,2.96928832 6.82770942,1.00031052 4.4,0.997 C1.9699471,0.997 0,2.9669471 0,5.397 M4.4,3.93099863 C5.20847762,3.93265446 5.863,4.58852068 5.863,5.397 C5.863,6.20547932 5.20847762,6.86134554 4.4,6.86300307 C4.0106731,6.86379671 3.63701909,6.70969538 3.36144158,6.43468064 C3.08586406,6.15966591 2.931,5.78632772 2.931,5.397 C2.93126497,5.00775394 3.08621507,4.63457035 3.36173485,4.35961323 C3.63725463,4.08465612 4.01075421,3.93046924 4.4,3.93099863" id="Path_337"></path>
                                    </g>
                                    <g id="Group_225" transform="translate(0.192000, 0.684000)">
                                        <path d="M2.931,2.931 L52.765,2.931 L52.765,31.163 C50.015816,33.0821082 48.3739801,36.2202536 48.365,39.573 L38.108,39.573 L38.108,42.5050003 L49.965,42.5050003 C50.3538887,42.5050003 50.7269259,42.3508977 51.0019118,42.0759118 C51.2768977,41.8009259 51.4312655,41.4278887 51.431,41.039 C51.4313548,40.9579063 51.424663,40.8769352 51.411,40.797 C50.8736829,37.7768255 52.2974767,34.7457552 54.965,33.231 C55.4182401,32.9695599 55.698,32.4862374 55.698,31.963 L55.698,1.463 C55.6963449,0.654131857 55.0398696,-0.00055344622 54.231,-3.5063826e-07 L1.465,-3.5063826e-07 C0.655902841,-3.5063826e-07 0,0.655902841 0,1.465 L0,35.176 L2.931,35.176 L2.931,2.931 Z" id="Path_338"></path>
                                    </g>
                                </g>
                                <polygon id="Path_340" points="85.01 59.723 87.941 59.723 87.941 30.409 85.01 30.409"></polygon>
                                <polygon id="Path_341" points="0 43.6 2.931 43.6 2.931 17.217 0 17.217"></polygon>
                                <polygon id="Path_342" points="85.01 27.474 87.941 27.474 87.941 24.543 85.01 24.543"></polygon>
                            </g>
                        </g>
                    </g>
                </g>
            </g>
        </g>
    </g>
</svg>