
<svg width="154px" height="93px" viewBox="0 0 154 93" version="1.1" xmlns="http://www.w3.org/2000/svg" xmlns:xlink="http://www.w3.org/1999/xlink">
    <g id="Page-1" stroke="none" stroke-width="1" fill="none" fill-rule="evenodd">
        <g id="spectropharma-1920-–-strategy" transform="translate(-520.000000, -573.000000)">
            <g id="strategy" transform="translate(104.000000, 240.000000)">
                <g id="body_copy" transform="translate(415.000000, 100.000000)">
                    <g id="industrial" transform="translate(1.000000, 230.000000)">
                        <g id="Group_221" transform="translate(0.000000, 1.913000)">
                            <g id="Group_220">
                                <g id="Group_216" transform="translate(17.870000, 60.558000)" fill="#1444BF" fill-rule="nonzero">
                                    <path d="M3.793,0 C1.69978173,0.00385238992 0.00385238992,1.69978173 0,3.793 C0.00385238992,5.88621827 1.69978173,7.58214761 3.793,7.586 C5.88621827,7.58214761 7.58214761,5.88621827 7.586,3.793 C7.58214761,1.69978173 5.88621827,0.00385238992 3.793,0 M3.793,5.149 C3.04410188,5.149 2.437,4.54189812 2.437,3.793 C2.437,3.04410188 3.04410188,2.437 3.793,2.437 C4.54166956,2.43755151 5.14844849,3.04433044 5.149,3.793 C5.14844849,4.54166956 4.54166956,5.14844849 3.793,5.149" id="Path_326"></path>
                                </g>
                                <g id="Group_217" transform="translate(15.731000, 10.836000)" fill="#1444BF" fill-rule="nonzero">
                                    <path d="M11.863,5.932 C11.8596937,2.6576077 9.2063917,0.00385834383 5.932,0 C2.65744593,0.00385728268 0.00385728268,2.65744593 0,5.932 C0.00385834383,9.2063917 2.6576077,11.8596937 5.932,11.863 C9.20600178,11.8591427 11.8591427,9.20600178 11.863,5.932 M2.437,5.932 C2.43975388,4.00290665 4.00290665,2.43975388 5.932,2.437 C7.86070282,2.44030439 9.42324754,4.00329632 9.426,5.932 C9.42324754,7.86070368 7.86070282,9.42369561 5.932,9.427 C4.00290665,9.42424612 2.43975388,7.86109335 2.437,5.932" id="Path_327"></path>
                                </g>
                                <g id="Group-3">
                                    <g id="Group_218" transform="translate(42.597000, 28.059000)" fill="#1444BF" fill-rule="nonzero">
                                        <path d="M3.793,0 C1.69978173,0.00385238992 0.00385238992,1.69978173 0,3.793 C0.00385238992,5.88621827 1.69978173,7.58214761 3.793,7.586 C5.88621827,7.58214761 7.58214761,5.88621827 7.586,3.793 C7.58214761,1.69978173 5.88621827,0.00385238992 3.793,0 M3.793,5.149 C3.04410188,5.149 2.437,4.54189812 2.437,3.793 C2.437,3.04410188 3.04410188,2.437 3.793,2.437 C4.54166956,2.43755151 5.14844849,3.04433044 5.149,3.793 C5.14844849,4.54166956 4.54166956,5.14844849 3.793,5.149" id="Path_328"></path>
                                    </g>
                                    <g id="Group_219">
                                        <g id="Group-2" transform="translate(0.006168, 0.996000)">
                                            <path d="M82.1248322,52.67 L74.2798322,44.827 L74.2798322,39.339 C75.7512841,39.109239 76.8369983,37.8432793 76.8398322,36.354 C76.8398358,35.6823239 76.2965046,35.137204 75.6248322,35.135 C74.9519876,35.135552 74.4068319,35.6811552 74.4068322,36.354 C74.4062817,36.6790674 74.1428996,36.9424495 73.8178322,36.943 L66.2468322,36.943 C65.9217647,36.9424495 65.6583827,36.6790674 65.6578322,36.354 L65.6578322,29.242 L68.5918322,27.884 C69.5053759,27.4600489 70.5592884,27.4600489 71.4728322,27.884 L72.9418322,28.564 C73.8336025,28.9789319 74.4047057,29.8724257 74.4068322,30.856 C74.4090362,31.5271202 74.9537083,32.0700036 75.6248322,32.07 C76.297515,32.07 76.8428322,31.5246828 76.8428322,30.852 C76.8369041,28.9209341 75.7153572,27.1672992 73.9648322,26.352 L72.4928322,25.67 C70.9298099,24.9450079 69.1268545,24.9450079 67.5638322,25.67 L64.2248322,27.217 L53.3768322,26.106 C51.8028763,23.7854192 49.1808349,22.3961118 46.3768322,22.397 C42.32271,22.4026505 38.8407868,25.2796598 38.0708322,29.26 L28.4558322,24.109 C30.5071927,22.4360652 31.870619,20.0662665 32.2858322,17.452 L38.4388322,21.742 C38.6439467,21.8855449 38.8884804,21.962049 39.1388322,21.961 C39.5375915,21.9614888 39.9112509,21.7664385 40.1388322,21.439 C40.3254531,21.1740985 40.3987254,20.8457101 40.3424125,20.5266035 C40.2860996,20.2074969 40.1048517,19.9240238 39.8388322,19.739 L32.3498322,14.517 C31.7092584,9.09485036 27.1166845,5.00736075 21.6568322,5 C15.711401,5.00606421 10.8933443,9.82456831 10.8878322,15.77 C10.889884,19.4779284 12.7996993,22.9239076 15.9428322,24.891 L13.7248322,56.878 C11.9001438,58.8603677 10.8880999,61.4566974 10.8898322,64.151 L10.8898322,72.482 C8.21725836,72.3759467 5.8411108,74.1704026 5.21183216,76.77 C3.34383216,76.723 1.55983216,77.431 1.10083216,79.453 L0.0768321616,83.97 C-0.141065734,84.9902009 0.109936926,86.054351 0.760774962,86.8696419 C1.411613,87.6849327 2.39370898,88.1654589 3.43683216,88.179 L30.7368322,88.179 C31.0601311,88.179 31.3701885,88.05057 31.5987953,87.8219632 C31.8274022,87.5933563 31.9558322,87.2832989 31.9558322,86.96 C31.9558323,86.636793 31.8273704,86.3268383 31.5987347,86.0983902 C31.3700991,85.8699421 31.0600391,85.7417346 30.7368322,85.742 L3.43683216,85.742 C3.13156358,85.7379641 2.8441875,85.5972688 2.65377832,85.3586278 C2.46336913,85.1199868 2.38999009,84.8085454 2.45383216,84.51 L3.47783216,79.997 C3.57893884,79.5354261 3.98932657,79.2076164 4.46183216,79.211 L38.8508322,79.211 C39.3233378,79.2076164 39.7337255,79.5354261 39.8348322,79.997 L40.8588322,84.51 C40.9227065,84.8087148 40.8492032,85.1203286 40.6585681,85.3590099 C40.4679331,85.5976911 40.1802769,85.7382608 39.8748322,85.742 L36.6428322,85.742 C35.9705397,85.7419998 35.4253841,86.2867077 35.4248322,86.959 C35.4245668,87.2822069 35.5527743,87.5922669 35.7812224,87.8209026 C36.0096704,88.0495382 36.3196251,88.1780001 36.6428322,88.178 L39.8748322,88.178 C40.9180471,88.1650584 41.9004548,87.6848891 42.5515581,86.8697023 C43.2026614,86.0545156 43.4538026,84.9902714 43.2358322,83.97 L42.2118322,79.458 C41.7528322,77.436 39.9688322,76.728 38.0998322,76.775 C37.4731343,74.1743249 35.0979102,72.3775254 32.4248322,72.482 L32.4248322,64.151 C32.4264663,61.4567158 31.4144359,58.8604205 29.5898322,56.878 L27.4708322,26.341 L38.0018322,31.984 C38.5711226,36.1790168 42.150367,39.3094679 46.3838322,39.315 C49.1878349,39.3158882 51.8098763,37.9265808 53.3838322,35.606 L63.2218322,34.598 L63.2218322,36.354 C63.2245885,37.8429553 64.3097775,39.108797 65.7808322,39.339 L65.7808322,44.827 L57.9318322,52.67 C56.728899,53.8997376 56.728899,55.8652624 57.9318322,57.095 C59.6946798,58.717851 61.6976287,60.0586597 63.8698322,61.07 C65.0676186,61.6567753 66.5137536,61.3001616 67.3014095,60.2237807 C68.0890653,59.1473998 67.991474,57.6611441 67.0698322,56.697 L65.2388322,54.882 L69.0388322,51.082 C69.301548,50.8181924 69.6585231,50.6698947 70.0308322,50.6698947 C70.4031413,50.6698947 70.7601163,50.8181924 71.0228322,51.082 L74.8558322,54.915 L72.9108322,57.006 C72.0316186,58.0112261 71.9996269,59.5021688 72.8349121,60.5441834 C73.6701974,61.586198 75.1323748,61.8794058 76.3048322,61.24 C78.3180893,60.192237 80.1864427,58.8869444 81.8628322,57.357 C82.5446281,56.7859843 82.9596262,55.9582038 83.0092615,55.0702618 C83.0588969,54.1823198 82.7387407,53.3134446 82.1248322,52.67 M13.3248322,15.77 C13.3297935,11.170582 17.0574136,7.44340924 21.6568322,7.439 C26.2556321,7.44451019 29.982322,11.1712001 29.9878322,15.77 C29.9823231,20.3689624 26.2557938,24.095939 21.6568322,24.102 C17.0572518,24.0970397 13.3297925,20.3695803 13.3248322,15.77 M21.6568322,26.538 C22.7938202,26.5384079 23.9236245,26.3578147 25.0038322,26.003 L27.0038322,54.808 C25.3772827,53.8723673 23.5332829,53.3809329 21.6568322,53.383 C19.7798609,53.3813658 17.935482,53.873499 16.3088322,54.81 L18.3088322,26.005 C19.3893665,26.3598864 20.5195114,26.54048 21.6568322,26.54 M35.5488322,76.77 L7.76383216,76.77 C8.25047632,75.6447453 9.35885506,74.9159106 10.5848322,74.915 L32.7248322,74.915 C33.9518205,74.9149766 35.0615459,75.6439217 35.5488322,76.77 M29.9878322,72.478 L13.3248322,72.478 L13.3248322,64.151 C13.3297925,59.5514197 17.0572518,55.8239603 21.6568322,55.819 C26.2557938,55.825061 29.9823231,59.5520376 29.9878322,64.151 L29.9878322,72.478 Z M46.3878322,36.878 C43.0634101,36.8741437 40.3692404,34.1804214 40.3648322,30.856 C40.3686906,27.5313504 43.063182,24.8373064 46.3878322,24.834 C49.7120918,24.8378574 52.4059747,27.5317403 52.4098322,30.856 C52.4054251,34.1800316 49.7118637,36.8735929 46.3878322,36.878 M54.5598322,33.035 C54.7499413,32.3242785 54.8460933,31.5917082 54.8458322,30.856 C54.8460887,30.1199631 54.7499376,29.3870629 54.5598322,28.676 L63.2208322,29.563 L63.2208322,32.149 L54.5598322,33.035 Z M71.8438322,44.113 L68.2128322,44.113 L68.2128322,39.379 L71.8438322,39.379 L71.8438322,44.113 Z M80.4018322,55.37 C78.8026501,56.8575523 77.0113835,58.124152 75.0758322,59.136 C74.7368322,59.336 74.5008322,58.874 74.6968322,58.664 L77.4378322,55.711 C77.8836719,55.2309996 77.8699756,54.4843267 77.4068322,54.021 L72.7438322,49.358 C72.0231285,48.6366411 71.0445213,48.2324572 70.0248322,48.235 C69.0065503,48.2336325 68.0296197,48.6377184 67.3098322,49.358 L62.6458322,54.021 C62.1737498,54.4998825 62.1737498,55.2691175 62.6458322,55.748 L65.3458322,58.424 C65.5528322,58.624 65.3288322,59.085 64.9918322,58.908 C63.0409436,58.0105513 61.2403825,56.8171484 59.6538322,55.37 C59.387685,55.097932 59.387685,54.663068 59.6538322,54.391 L67.4988322,46.548 L72.5578322,46.548 L80.4018322,54.391 C80.6679794,54.663068 80.6679794,55.097932 80.4018322,55.37" id="Path_329" fill="#1444BF" fill-rule="nonzero"></path>
                                            <g id="_1" transform="translate(108.993832, 0.091000)">
                                                <g id="Rectangle_55-2" fill="#1545C0" fill-rule="nonzero">
                                                    <rect id="Rectangle_55" x="1.0658141e-14" y="-7.10542736e-15" width="45" height="93"></rect>
                                                </g>
                                                <g id="_1-2" transform="translate(16.000000, 31.000000)" fill="#FFFFFF" font-family="Helvetica" font-size="20" font-weight="normal">
                                                    <text id="1">
                                                        <tspan x="0.19" y="19">1</tspan>
                                                    </text>
                                                </g>
                                            </g>
                                        </g>
                                    </g>
                                </g>
                            </g>
                        </g>
                    </g>
                </g>
            </g>
        </g>
    </g>
</svg>