
<svg width="154px" height="93px" viewBox="0 0 154 93" version="1.1" xmlns="http://www.w3.org/2000/svg" xmlns:xlink="http://www.w3.org/1999/xlink">
    <g id="Page-1" stroke="none" stroke-width="1" fill="none" fill-rule="evenodd">
        <g id="spectropharma-1920-–-strategy" transform="translate(-520.000000, -1157.000000)">
            <g id="strategy" transform="translate(104.000000, 240.000000)">
                <g id="body_copy" transform="translate(415.000000, 100.000000)">
                    <g id="Technology" transform="translate(1.000000, 814.000000)">
                        <g id="_1-6" transform="translate(0.000000, 3.000000)">
                            <g id="Group-10">
                                <g id="Group-9" transform="translate(0.000000, -0.000000)" fill-rule="nonzero">
                                    <rect id="Rectangle_55-5" fill="#1545C0" x="109" y="0" width="45" height="93"></rect>
                                    <g id="Group_250" transform="translate(0.000000, 5.000000)" fill="#1444BF">
                                        <g id="Group_249">
                                            <g id="Group_245" transform="translate(15.390000, 16.086000)">
                                                <path d="M36.779,13.815 L35.651,13.815 C35.578,13.624 35.488,13.415 35.397,13.225 L36.197,12.461 C36.7539177,11.9390269 37.0699029,11.209791 37.0699029,10.4465 C37.0699029,9.68320897 36.7539177,8.95397305 36.197,8.432 L31.979,4.404 C30.7921226,3.29193842 28.9458774,3.29193842 27.759,4.404 L26.959,5.168 C26.759,5.081 26.541,4.994 26.341,4.925 L26.341,3.848 C26.2957492,2.24134601 24.9650267,0.970847319 23.358,1 L17.389,1 C15.779229,0.96422883 14.4443054,2.23831141 14.405,3.848 L14.405,4.925 C14.205,4.994 13.987,5.081 13.787,5.168 L12.987,4.404 C11.8001226,3.29193842 9.9538774,3.29193842 8.767,4.404 L4.547,8.432 C3.98954036,8.95367133 3.67317128,9.68301966 3.67317128,10.4465 C3.67317128,11.2099803 3.98954036,11.9393287 4.547,12.461 L5.365,13.225 C5.274,13.416 5.183,13.625 5.11,13.815 L3.979,13.815 C2.36961556,13.7797887 1.0353078,15.0537104 0.996,16.663 L0.996,22.363 C1.04393479,23.9676838 2.37386597,25.2351978 3.979,25.206 L5.106,25.206 C5.179,25.397 5.27,25.606 5.361,25.796 L4.561,26.56 C4.00408229,27.0819731 3.68809712,27.811209 3.68809712,28.5745 C3.68809712,29.337791 4.00408229,30.0670269 4.561,30.589 L8.781,34.617 C9.96826721,35.728075 11.8137328,35.728075 13.001,34.617 L13.801,33.853 C14.001,33.94 14.22,34.027 14.42,34.096 L14.42,35.173 C14.4684774,36.7788775 15.8006984,38.0464276 17.407,38.015 L23.355,38.015 C24.9642188,38.0507713 26.2986948,36.7771364 26.338,35.168 L26.338,34.096 C26.538,34.027 26.756,33.94 26.956,33.853 L27.756,34.617 C28.9432672,35.728075 30.7887328,35.728075 31.976,34.617 L36.196,30.589 C36.7529177,30.0670269 37.0689029,29.337791 37.0689029,28.5745 C37.0689029,27.811209 36.7529177,27.0819731 36.196,26.56 L35.396,25.796 C35.487,25.605 35.577,25.396 35.65,25.206 L36.779,25.206 C38.3883844,25.2412113 39.7226922,23.9672896 39.762,22.358 L39.762,16.658 C39.7140652,15.0533162 38.384134,13.7858022 36.779,13.815 M36.761,22.341 L33.487,22.341 L33.159,23.33 C32.9288725,24.0487994 32.624216,24.741566 32.25,25.397 L31.74,26.317 L34.051,28.517 L29.83,32.546 L27.539,30.363 L26.574,30.849 C25.8765611,31.1946697 25.1529926,31.4848996 24.41,31.717 L23.373,32.03 L23.373,35.155 L17.407,35.155 L17.407,32.03 L16.37,31.717 C15.6217026,31.4991101 14.8965681,31.2083864 14.205,30.849 L13.241,30.363 L10.913,32.585 L6.693,28.557 L9.003,26.357 L8.494,25.436 C8.12617767,24.7775793 7.82148621,24.0858292 7.584,23.37 L7.257,22.38 L3.979,22.38 L3.979,16.68 L7.253,16.68 L7.58,15.69 C7.81110185,14.9717286 8.11606622,14.279359 8.49,13.624 L8.999,12.704 L6.689,10.499 L10.889,6.418 L13.199,8.641 L14.163,8.154 C14.8609681,7.80874319 15.5848359,7.51852736 16.328,7.286 L17.364,6.974 L17.364,3.848 L23.349,3.848 L23.349,6.974 L24.386,7.286 C25.1336706,7.50477382 25.8583889,7.79546487 26.55,8.154 L27.514,8.641 L29.824,6.435 L34.045,10.464 L31.74,12.669 L32.25,13.589 C32.6179408,14.2475761 32.9223153,14.9397017 33.159,15.656 L33.487,16.645 L36.761,16.645 L36.761,22.341 Z" id="Path_358"></path>
                                            </g>
                                            <g id="Group_246" transform="translate(25.320000, 24.612000)">
                                                <path d="M10.441,1 C4.80683427,0.872587424 0.134304066,5.33299434 -1.77635684e-15,10.967 C0.140292635,16.5983565 4.80920258,21.0553075 10.441,20.934 C16.0727974,21.0553075 20.7417074,16.5983565 20.882,10.967 C20.7476959,5.33299434 16.0751657,0.872587424 10.441,1 M10.441,18.1 C6.41886874,18.1883292 3.08343442,15.0058472 2.983,10.984 C3.09047893,6.96481228 6.42116103,3.78552482 10.441,3.865 C14.4642735,3.7766867 17.80019,6.9609706 17.899,10.984 C17.7985656,15.0058472 14.4631313,18.1883292 10.441,18.1" id="Path_359"></path>
                                            </g>
                                            <g id="Group_247" transform="translate(56.625000, 6.120000)">
                                                <path d="M5.966,1 C2.74549123,0.929041605 0.0759026267,3.47960396 8.8817842e-16,6.7 C0.0872761606,9.91396722 2.75149258,12.4553778 5.966,12.391 C9.18308022,12.4620036 11.8512209,9.9168496 11.932,6.7 C11.8560974,3.47960396 9.18650877,0.929041605 5.966,1 M5.966,9.543 C4.35851812,9.57823929 3.02501305,8.30731911 2.983,6.7 C3.01959281,5.08889358 4.35487463,3.81225136 5.966,3.848 C7.57712537,3.81225136 8.91240719,5.08889358 8.949,6.7 C8.90698695,8.30731911 7.57348188,9.57823929 5.966,9.543" id="Path_360"></path>
                                            </g>
                                            <g id="Group_248">
                                                <path d="M76.016,11.391 L76.016,10.922 C75.9816145,9.57831786 74.8678312,8.51503917 73.524,8.543 L73.378,8.543 L73.488,8.457 C73.9539853,8.02069797 74.2176818,7.41035641 74.216,6.772 C74.2165722,6.13503368 73.9529673,5.52635255 73.488,5.091 L70.688,2.417 C69.6921508,1.51421212 68.1738492,1.51421212 67.178,2.417 L67.087,2.504 L67.087,2.382 C67.0526145,1.03831786 65.9388312,-0.0249608257 64.595,0.0024398365 L60.629,0.0024398365 C59.284954,-0.0255136347 58.1708433,1.03807766 58.137,2.382 L58.137,2.504 L58.046,2.417 C57.576127,1.96771256 56.9500982,1.71852009 56.3,1.722 C55.6445483,1.71843985 55.0128763,1.96731289 54.536,2.417 L51.716,5.091 C51.2506385,5.52723868 50.987337,6.13714206 50.989,6.775 C50.9878917,7.41216301 51.2511475,8.02123621 51.716,8.457 L51.807,8.543 L51.662,8.543 C50.3171809,8.51336793 49.2018395,9.57728021 49.168,10.922 L49.168,11.391 L0,11.391 L0,71.14 L28.322,71.14 L28.322,79.683 L16.39,79.683 L16.39,82.531 L75.98,82.531 L75.98,79.683 L64.065,79.683 L64.065,71.14 L92.405,71.14 L92.405,11.391 L76.016,11.391 Z M52.169,11.391 L54.206,11.391 L54.534,10.401 C54.6829874,9.95176466 54.8717348,9.51670868 55.098,9.101 L55.607,8.181 L54.17,6.791 L56.28,4.776 L57.735,6.165 L58.699,5.679 C59.1350639,5.45568047 59.5918998,5.2754915 60.063,5.141 L61.1,4.828 L61.1,2.865 L64.083,2.865 L64.083,4.81 L65.12,5.123 C65.5887988,5.2641993 66.0450387,5.44415318 66.484,5.661 L67.449,6.147 L68.904,4.758 L71.016,6.772 L69.559,8.161 L70.068,9.082 C70.3008472,9.49446594 70.4898773,9.93017358 70.632,10.382 L70.959,11.372 L73.016,11.372 L73.016,14.221 L70.959,14.221 L70.632,15.211 C70.4821529,15.6599066 70.2934378,16.0948882 70.068,16.511 L69.559,17.432 L71.016,18.823 L68.906,20.837 L67.449,19.448 L66.484,19.934 C66.0484717,20.1585025 65.5915163,20.3387386 65.12,20.472 L64.083,20.785 L64.083,22.747 L61.1,22.747 L61.1,20.785 L60.063,20.472 C59.5943215,20.3304543 59.1381098,20.1505115 58.699,19.934 L57.735,19.448 L56.28,20.837 L54.17,18.823 L55.625,17.434 L55.116,16.513 C54.8823301,16.1009438 54.6932614,15.6651472 54.552,15.213 L54.225,14.223 L52.169,14.223 L52.169,11.391 Z M61.116,79.683 L31.305,79.683 L31.305,71.14 L61.116,71.14 L61.116,79.683 Z M89.416,68.31 L2.984,68.31 L2.984,59.767 L89.422,59.767 L89.416,68.31 Z M89.416,56.936 L2.984,56.936 L2.984,14.239 L49.184,14.239 L49.184,14.707 C49.2145834,16.0539309 50.3310596,17.121164 51.678,17.091 L51.805,17.091 L51.714,17.178 C51.2486385,17.6142387 50.985337,18.2241421 50.987,18.862 C50.9869637,19.4987696 51.2509177,20.1070587 51.716,20.542 L54.536,23.233 C55.5382995,24.1189111 57.0437005,24.1189111 58.046,23.233 L58.137,23.146 L58.137,23.268 C58.1713855,24.6116821 59.2851688,25.6749608 60.629,25.647 L64.595,25.647 C65.939046,25.6755136 67.0531567,24.6119223 67.087,23.268 L67.087,23.146 L67.178,23.233 C68.1738492,24.1357879 69.6921508,24.1357879 70.688,23.233 L73.488,20.559 C73.9537305,20.1229352 74.2174041,19.513009 74.216,18.875 C74.2146605,18.2375586 73.9514375,17.6286745 73.488,17.191 L73.397,17.104 L73.524,17.104 C74.868046,17.1325136 75.9821567,16.0689223 76.016,14.725 L76.016,14.256 L89.422,14.256 L89.416,56.936 Z" id="Path_361"></path>
                                            </g>
                                        </g>
                                        <polygon id="Path_363" points="44.711 62.615 47.694 62.615 47.694 65.463 44.711 65.463"></polygon>
                                        <polygon id="Path_364" points="50.677 62.615 53.66 62.615 53.66 65.463 50.677 65.463"></polygon>
                                        <polygon id="Path_365" points="38.744 62.615 41.727 62.615 41.727 65.463 38.744 65.463"></polygon>
                                        <polygon id="Path_366" points="7.458 18.51 17.9 18.51 17.9 21.358 7.458 21.358"></polygon>
                                        <polygon id="Path_367" points="7.458 24.206 13.424 24.206 13.424 27.054 7.458 27.054"></polygon>
                                        <polygon id="Path_368" points="73.032 49.817 83.473 49.817 83.473 52.665 73.032 52.665"></polygon>
                                        <polygon id="Path_369" points="77.507 44.122 83.473 44.122 83.473 46.97 77.507 46.97"></polygon>
                                    </g>
                                </g>
                                <g id="_5" transform="translate(125.000000, 31.000000)" fill="#FFFFFF" font-family="Helvetica" font-size="20" font-weight="normal">
                                    <text id="5">
                                        <tspan x="0.16" y="19">5</tspan>
                                    </text>
                                </g>
                            </g>
                        </g>
                    </g>
                </g>
            </g>
        </g>
    </g>
</svg>