
<svg width="154px" height="93px" viewBox="0 0 154 93" version="1.1" xmlns="http://www.w3.org/2000/svg" xmlns:xlink="http://www.w3.org/1999/xlink">
    <g id="Page-1" stroke="none" stroke-width="1" fill="none" fill-rule="evenodd">
        <g id="spectropharma-1920-–-strategy" transform="translate(-520.000000, -865.000000)">
            <g id="strategy" transform="translate(104.000000, 240.000000)">
                <g id="body_copy" transform="translate(415.000000, 100.000000)">
                    <g id="Research" transform="translate(0.000000, 522.000000)">
                        <g id="Group-5" transform="translate(0.000000, 3.000000)">
                            <g id="_1-4" transform="translate(110.000000, -0.000000)">
                                <rect id="Rectangle_55-3" fill="#1545C0" fill-rule="nonzero" x="0" y="0" width="45" height="93"></rect>
                                <g id="_3" transform="translate(16.000000, 31.000000)" fill="#FFFFFF" font-family="Helvetica" font-size="20" font-weight="normal">
                                    <text id="3">
                                        <tspan x="0.18" y="19">3</tspan>
                                    </text>
                                </g>
                            </g>
                            <g id="Group_236" transform="translate(0.000000, 4.000000)" fill="#1444BF" fill-rule="nonzero">
                                <g id="Group_235">
                                    <g id="Group_228" transform="translate(58.871000, 29.582000)">
                                        <path d="M1.258,0 C1.59722666,0.00552405111 1.92035963,0.145602635 2.15629014,0.389410002 C2.39222065,0.63321737 2.5216155,0.960774845 2.516,1.3 C2.52188252,1.63930215 2.39257553,1.96701262 2.15658834,2.21087856 C1.92060114,2.4547445 1.59731237,2.5947403 1.258,2.6 C0.918687625,2.5947403 0.595398855,2.4547445 0.359411662,2.21087856 C0.123424468,1.96701262 -0.00588252283,1.63930215 5.42101086e-20,1.3 C-0.00561550171,0.960774845 0.123779345,0.63321737 0.359709859,0.389410002 C0.595640373,0.145602635 0.918773343,0.00552405111 1.258,0" id="Path_343"></path>
                                    </g>
                                    <g id="Group_229" transform="translate(56.355000, 63.360000)">
                                        <path d="M3.774,0 C1.6559479,0.0372470729 -0.0323071817,1.78186679 1.399705e-16,3.9 C-0.0323071817,6.01813321 1.6559479,7.76275293 3.774,7.8 C5.8920521,7.76275293 7.58030718,6.01813321 7.548,3.9 C7.58030718,1.78186679 5.8920521,0.0372470729 3.774,0 M3.774,5.2 C3.05602983,5.2 2.474,4.61797017 2.474,3.9 C2.474,3.18202983 3.05602983,2.6 3.774,2.6 C4.47970162,2.61314225 5.04203253,3.19424732 5.032,3.9 C5.04203253,4.60575268 4.47970162,5.18685775 3.774,5.2" id="Path_344"></path>
                                    </g>
                                    <g id="Group_230" transform="translate(0.000000, 1.000000)">
                                        <path d="M66.36,29.282 C66.2437508,27.9167317 65.7015622,26.622475 64.81,25.582 L70.193,20.026 C71.0059102,19.1847428 71.4574251,18.0588271 71.451,16.889 C71.4505556,15.9799174 71.1747832,15.092286 70.66,14.343 L72.705,12.231 C73.1692906,12.7168265 73.8119932,12.9917544 74.484,12.992 C77.0153365,12.9487187 79.0338686,10.8644232 78.996,8.333 C78.9993414,7.64797711 78.7348673,6.98876551 78.259,6.496 L72.709,0.762 C72.2453237,0.275762344 71.6028799,3.55271368e-15 70.931,3.55271368e-15 C68.3996635,0.0432813119 66.3811314,2.12757676 66.419,4.659 C66.4167304,5.34458514 66.6826707,6.00387311 67.16,6.496 L65.11,8.614 C63.9789252,7.83457646 62.5451696,7.63791745 61.246,8.084 C60.8345869,6.40775413 59.3428287,5.22100683 57.617,5.197 C55.4987919,5.23424852 53.8102501,6.97870233 53.842,9.097 C53.8322102,10.6419473 54.7337473,12.0475613 56.142,12.683 L45.988,23.159 C45.4180269,21.7380028 44.0469791,20.8013308 42.516,20.787 C42.487,20.787 42.459,20.795 42.43,20.796 C44.9007082,18.4138533 46.2944644,15.1280551 46.29,11.696 L46.29,10.396 L45.032,10.396 C39.28,10.396 35.764,12.439 33.709,15.002 L33.709,11.695 C33.709,7.352 30.795,0.002 19.871,0.002 L18.613,0.002 L18.613,1.302 C18.613,5.347 20.979,12.995 29.935,12.995 L31.193,12.995 L31.193,22.795 C29.2030325,20.4146341 26.3889961,18.8717524 23.312,18.474 C23.5303528,17.9740398 23.6436944,17.4345607 23.645,16.889 C23.6773072,14.7708668 21.9890521,13.0262471 19.871,12.989 C17.7529479,13.0262471 16.0646928,14.7708668 16.097,16.889 C16.0870703,18.5369228 17.1191972,20.0113324 18.671,20.566 C19.06,24.752 21.72,31.182 29.935,31.182 L31.193,31.182 L31.193,38.975 L26.16,38.975 C24.7476489,38.9991026 23.6217232,40.1626189 23.644,41.575 L23.644,44.175 C23.6217232,45.5873811 24.7476489,46.7508974 26.16,46.775 L26.16,49.375 L18.612,49.375 L18.612,46.775 C20.0241138,46.7503507 21.1497227,45.5871618 21.128,44.175 L21.128,41.575 C21.1497227,40.1628382 20.0241138,38.9996493 18.612,38.975 L6.032,38.975 C4.61964891,38.9991026 3.49372315,40.1626189 3.516,41.575 L3.516,44.175 C3.49372315,45.5873811 4.61964891,46.7508974 6.032,46.775 L6.032,49.375 L4.774,49.375 C2.6559479,49.4122471 0.967692818,51.1568668 0.99954395,53.275 L0.99954395,80.548 L3.516,80.548 L3.516,53.266 C3.50541535,52.5600286 4.06806165,51.9785976 4.774,51.966 L6.032,51.966 L6.032,68.856 C5.97909576,72.3850136 8.79310438,75.2907348 12.322,75.351 C15.8512886,75.2912796 18.6659006,72.3853974 18.613,68.856 L18.613,51.967 L26.16,51.967 L26.16,68.856 C26.1070958,72.3850136 28.9211044,75.2907348 32.45,75.351 C32.8771483,75.351165 33.3031391,75.3065885 33.721,75.218 C33.721,75.263 33.708,75.306 33.708,75.351 L33.708,77.951 C33.686281,79.3635455 34.8124932,80.5268954 36.225,80.551 L71.451,80.551 C72.8635068,80.5268954 73.989719,79.3635455 73.968,77.951 C73.9687182,76.9033049 73.6582592,75.8789993 73.076,75.008 L75.08,71.282 C77.6536146,66.4770943 79.0004321,61.110744 79.0004321,55.66 C79.0437172,47.1770322 75.7689171,39.0131798 69.875,32.912 L66.36,29.282 Z M29.935,10.394 C23.245,10.394 21.635,5.184 21.251,2.645 C27.768,3.101 30.569,6.794 31.099,10.394 L29.935,10.394 Z M6.035,41.573 L18.616,41.573 L18.616,44.173 L6.032,44.173 L6.035,41.573 Z M8.551,46.773 L16.099,46.773 L16.099,49.373 L8.551,49.373 L8.551,46.773 Z M16.1,68.859 C16.1317499,70.9772977 14.4432081,72.7217515 12.325,72.759 C10.2069479,72.7217529 8.51869282,70.9771332 8.551,68.859 L8.551,51.967 L16.1,51.967 L16.1,68.859 Z M60.129,33.782 C58.0107107,33.7452992 56.322139,32.0003523 56.355,29.882 C56.3226928,27.7638668 58.0109479,26.0192471 60.129,25.982 C62.2470521,26.0192471 63.9353072,27.7638668 63.903,29.882 C63.935861,32.0003523 62.2472893,33.7452992 60.129,33.782 M70.929,2.603 L76.482,8.337 C76.4986942,9.45835447 75.60335,10.3810067 74.482,10.398 L68.935,4.659 C68.9269844,4.12059337 69.1332088,3.60106034 69.5082941,3.21472247 C69.8833795,2.8283846 70.3965916,2.60689797 70.935,2.599 M68.935,8.333 L70.935,10.394 L68.935,12.454 L66.935,10.394 L68.935,8.333 Z M63.903,10.933 L68.414,15.592 C68.7483508,15.9422299 68.935,16.4077982 68.935,16.892 C68.935,17.3762018 68.7483508,17.8417701 68.414,18.192 L62.777,24.01 C61.9534205,23.6024494 61.0478842,23.3876923 60.129,23.382 C56.5977292,23.4417115 53.7823112,26.3506635 53.838,29.882 C53.8416881,30.8265578 54.0483554,31.7592889 54.444,32.617 L51.322,35.84 L44.295,28.582 L61.387,10.931 C62.0864277,10.2475526 63.2035723,10.2475526 63.903,10.931 M41.779,31.182 L42.516,30.421 L49.543,37.678 L48.806,38.439 C48.1065723,39.1224474 46.9894277,39.1224474 46.29,38.439 L41.779,33.782 C41.4452026,33.4315697 41.2593187,32.9659645 41.2599981,32.482 C41.2599981,31.9977982 41.4466492,31.5322299 41.781,31.182 M57.613,7.795 C58.3187016,7.80814225 58.8810325,8.38924732 58.871,9.095 C58.8810325,9.80075268 58.3187016,10.3818578 57.613,10.395 C56.9070616,10.3824024 56.3444153,9.8009714 56.355,9.095 C56.3444153,8.3890286 56.9070616,7.8075976 57.613,7.795 M43.774,24.682 C43.7845847,25.3879714 43.2219384,25.9694024 42.516,25.982 C41.8108479,25.9683152 41.2494063,25.3872053 41.26,24.682 C41.2494153,23.9760286 41.8120616,23.3945976 42.518,23.382 C43.2239384,23.3945976 43.7865847,23.9760286 43.776,24.682 M43.654,13.037 C43.268,15.578 41.659,20.785 34.97,20.785 L33.807,20.785 C34.337,17.185 37.137,13.493 43.654,13.037 M19.873,15.588 C20.5787016,15.6011422 21.1410325,16.1822473 21.131,16.888 C21.1410325,17.5937527 20.5787016,18.1748578 19.873,18.188 C19.1672984,18.1748578 18.6049675,17.5937527 18.615,16.888 C18.6049675,16.1822473 19.1672984,15.6011422 19.873,15.588 M29.935,28.582 C23.245,28.582 21.635,23.372 21.251,20.834 C27.768,21.29 30.569,24.982 31.099,28.582 L29.935,28.582 Z M33.709,31.182 L33.709,23.382 L34.968,23.382 C36.4450673,23.4007404 37.9136665,23.1562561 39.305,22.66 C38.938049,23.2707349 38.7434852,23.9695059 38.742,24.682 C38.7319524,26.2270219 39.633572,27.6327645 41.042,28.268 L40,29.343 C39.1863309,30.184576 38.7347313,31.3114213 38.742,32.482 C38.7359822,33.6505669 39.1875138,34.7750888 40,35.615 L44.511,40.274 C45.3032586,41.1039843 46.400591,41.5737018 47.548,41.574 C48.695409,41.5737018 49.7927414,41.1039843 50.585,40.274 L55.968,34.715 C57.0958546,35.7737925 58.5820657,36.3674197 60.129,36.377 C60.5010886,36.3720441 60.8719531,36.3332171 61.237,36.261 L61.749,36.661 C66.2945791,40.242057 68.9437899,45.7122755 68.9350218,51.499 C68.9370476,54.566339 68.1940872,57.5882835 66.77,60.305 C65.3610758,58.6105676 63.3620057,57.5134734 61.176,57.235 C60.694367,55.6655551 59.2545424,54.5865959 57.613,54.565 L38.742,54.565 L38.742,51.965 L43.774,51.965 L43.774,49.365 L38.742,49.365 L38.742,46.765 C40.1541138,46.7403507 41.2797227,45.5771618 41.258,44.165 L41.258,41.565 C41.2797227,40.1528382 40.1541138,38.9896493 38.742,38.965 L33.709,38.965 L33.709,31.182 Z M60.129,72.755 C56.5977292,72.6952885 53.7823112,69.7863365 53.838,66.255 C53.7823112,62.7236635 56.5977292,59.8147115 60.129,59.755 C63.6598777,59.8152566 66.4746921,62.7240473 66.419,66.255 C66.4746921,69.7859527 63.6598777,72.6947434 60.129,72.755 M53.977,59.763 L38.742,59.763 L38.742,57.163 L57.613,57.163 C57.8439951,57.1697047 58.0680708,57.2433544 58.258,57.375 C56.6321006,57.7443443 55.1463137,58.5724422 53.977,59.761 M38.742,68.861 L38.742,62.361 L52.184,62.361 C51.6163844,63.5828159 51.3222088,64.9137727 51.322,66.261 C51.3138832,68.6932667 52.2683374,71.0299717 53.977,72.761 L37.451,72.761 C38.2875976,71.6326512 38.7401075,70.2656576 38.742,68.861 M26.16,41.573 L38.741,41.573 L38.741,44.173 L26.16,44.173 L26.16,41.573 Z M28.676,46.773 L36.224,46.773 L36.224,49.373 L28.676,49.373 L28.676,46.773 Z M28.676,68.859 L28.676,51.967 L36.225,51.967 L36.225,68.856 C36.2567499,70.9742977 34.5682081,72.7187515 32.45,72.756 C30.3319479,72.7187529 28.6436928,70.9741332 28.676,68.856 M36.225,77.95 L36.225,75.35 L68.935,75.35 C70.3471893,75.3751973 71.4730559,76.5377283 71.4532638,77.95 L36.225,77.95 Z M72.88,70.02 L71.121,73.29 C70.444124,72.9421717 69.6949982,72.75823 68.934,72.753 L66.281,72.753 C67.9889259,71.0215649 68.9429473,68.6850393 68.935,66.253 C68.935691,65.0670036 68.7092811,63.8918447 68.268,62.791 C70.354207,59.3914426 71.45609,55.4796369 71.451,51.491 C71.4540981,45.1711435 68.680316,39.1690828 63.865,35.076 C64.7540652,34.3968858 65.4520659,33.4990627 65.891,32.47 L68.091,34.748 C73.5092014,40.3567212 76.5195309,47.8617299 76.479,55.66 C76.479835,60.6700871 75.243216,65.6028227 72.879,70.02" id="Path_345"></path>
                                    </g>
                                    <g id="Group_231" transform="translate(33.710000, 0.000000)">
                                        <path d="M3.774,8.795 C5.8920521,8.75775293 7.58030718,7.01313321 7.548,4.895 C7.58030718,2.77686679 5.8920521,1.03224707 3.774,0.995 C1.6559479,1.03224707 -0.0323071817,2.77686679 1.399705e-16,4.895 C-0.0323071817,7.01313321 1.6559479,8.75775293 3.774,8.795 M3.774,3.595 C4.47970162,3.60814225 5.04203253,4.18924732 5.032,4.895 C5.04203253,5.60075268 4.47970162,6.18185775 3.774,6.195 C3.06829838,6.18185775 2.50596747,5.60075268 2.516,4.895 C2.50596747,4.18924732 3.06829838,3.60814225 3.774,3.595" id="Path_346"></path>
                                    </g>
                                    <g id="Group_232" transform="translate(13.581000, 28.582000)">
                                        <path d="M3.774,8.795 C5.8920521,8.75775293 7.58030718,7.01313321 7.548,4.895 C7.58030718,2.77686679 5.8920521,1.03224707 3.774,0.995 C1.6559479,1.03224707 -0.0323071817,2.77686679 1.399705e-16,4.895 C-0.0323071817,7.01313321 1.6559479,8.75775293 3.774,8.795 M3.774,3.595 C4.47970162,3.60814225 5.04203253,4.18924732 5.032,4.895 C5.04203253,5.60075268 4.47970162,6.18185775 3.774,6.195 C3.06829838,6.18185775 2.50596747,5.60075268 2.516,4.895 C2.50596747,4.18924732 3.06829838,3.60814225 3.774,3.595" id="Path_347"></path>
                                    </g>
                                    <g id="Group_233" transform="translate(0.000000, 3.599000)">
                                        <path d="M6.032,10.393 C8.85622757,10.3437013 11.1074453,8.01732368 11.064,5.193 C11.1040995,2.37117198 8.85369162,0.0487617782 6.032,3.55271368e-15 C3.21030838,0.0487617782 0.959900491,2.37117198 1,5.193 C0.95655467,8.01732368 3.20777243,10.3437013 6.032,10.393 M6.032,2.593 C7.44435109,2.61710265 8.57027685,3.78061893 8.548,5.193 C8.56972267,6.60516184 7.44411379,7.76835067 6.032,7.793 C4.61988621,7.76835067 3.49427733,6.60516184 3.516,5.193 C3.49372315,3.78061893 4.61964891,2.61710265 6.032,2.593" id="Path_348"></path>
                                    </g>
                                    <g id="Group_234" transform="translate(2.516000, 20.786000)">
                                        <path d="M1,6.197 C0.95655467,9.02132368 3.20777243,11.3477013 6.032,11.397 C8.85662063,11.348246 11.1084417,9.02170732 11.065,6.197 C11.1084417,3.37229268 8.85662063,1.04575396 6.032,0.997 C3.20777243,1.04629867 0.95655467,3.37267632 1,6.197 M8.548,6.197 C8.57027685,7.60938107 7.44435109,8.77289735 6.032,8.797 C4.61988621,8.77235067 3.49427733,7.60916184 3.516,6.197 C3.49427733,4.78483816 4.61988621,3.62164933 6.032,3.597 C7.44435109,3.62110265 8.57027685,4.78461893 8.548,6.197" id="Path_349"></path>
                                    </g>
                                </g>
                            </g>
                        </g>
                    </g>
                </g>
            </g>
        </g>
    </g>
</svg>