
<svg width="153px" height="93px" viewBox="0 0 153 93" version="1.1" xmlns="http://www.w3.org/2000/svg" xmlns:xlink="http://www.w3.org/1999/xlink">
    <g id="Page-1" stroke="none" stroke-width="1" fill="none" fill-rule="evenodd">
        <g id="spectropharma-1920-–-strategy" transform="translate(-520.000000, -1011.000000)">
            <g id="strategy" transform="translate(104.000000, 240.000000)">
                <g id="body_copy" transform="translate(415.000000, 100.000000)">
                    <g id="Talent_Acquisition" transform="translate(1.000000, 668.000000)">
                        <g id="Group-6" transform="translate(0.000000, 3.000000)">
                            <g id="_1-5" transform="translate(0.000000, -0.000000)">
                                <g id="Group-8">
                                    <rect id="Rectangle_55-4" fill="#1545C0" fill-rule="nonzero" x="108" y="-7.10542736e-15" width="45" height="93"></rect>
                                    <g id="Group-7" transform="translate(0.000000, 5.000000)">
                                        <g id="_4" transform="translate(124.000000, 26.000000)" fill="#FFFFFF" font-family="Helvetica" font-size="20" font-weight="normal">
                                            <text id="4">
                                                <tspan x="0.21" y="19">4</tspan>
                                            </text>
                                        </g>
                                        <g id="Group_244" fill="#1444BF" fill-rule="nonzero">
                                            <g id="Group_243">
                                                <g id="Group_237" transform="translate(38.409000, 0.001000)">
                                                    <path d="M1.584,10.235 C2.45881904,10.235 3.168,9.52581904 3.168,8.651 L3.168,1.584 C3.168,0.709180956 2.45881904,0 1.584,0 C0.709180956,0 0,0.709180956 0,1.584 L0,8.651 C0,9.52581904 0.709180956,10.235 1.584,10.235" id="Path_351"></path>
                                                </g>
                                                <g id="Group_238" transform="translate(0.000000, 12.925000)">
                                                    <path d="M78.721,41.506 L75.921,38.715 C74.9310944,37.723405 73.586125,37.1682812 72.185,37.173 C71.2971314,37.1710554 70.423136,37.3932518 69.644,37.819 L64.37,32.551 L64.627,32.295 C66.7661154,30.148632 66.7661154,26.676368 64.627,24.53 C63.8738016,23.7732534 62.9146719,23.2547391 61.869,23.039 C62.013896,22.5378256 62.0872874,22.0186996 62.087,21.497 C62.0928476,20.0401997 61.5143557,18.6418775 60.481,17.615 C59.7275447,16.857528 58.7675501,16.3389222 57.721,16.124 C57.8658306,15.6228116 57.9392206,15.1036949 57.939,14.582 C57.9450798,13.1241733 57.3657747,11.7249065 56.331,10.698 C55.5773391,9.94372328 54.619214,9.42676683 53.575,9.211 C54.1368729,7.28348821 53.6054308,5.20293272 52.188,3.781 C51.0116446,2.61144731 49.3702683,2.03529373 47.721,2.213 L37.27,0.235 C35.676,-0.065 33.685,-0.265 32.429,0.878 C32.3438198,0.955846254 32.2636591,1.03901296 32.189,1.127 C30.1787221,0.391549271 27.9244163,0.887176793 26.408,2.398 C25.3772035,3.42692631 24.8010363,4.82557207 24.808,6.282 C24.8076998,6.80337215 24.8810924,7.32216989 25.026,7.823 C23.982038,8.03825689 23.0245597,8.5561229 22.273,9.312 C21.2387289,10.3373573 20.6587894,11.7346153 20.663,13.191 C20.6619825,13.7141345 20.7357279,14.23473 20.882,14.737 C19.8356548,14.9509 18.8754163,15.4680585 18.121,16.224 C17.0863065,17.2505464 16.5054571,18.6484741 16.508,20.106 C16.5058705,21.2126795 16.8403332,22.2938417 17.467,23.206 C16.6721817,23.4758516 15.9501893,23.9251293 15.357,24.519 C13.2145604,26.6659452 13.2145604,30.1420548 15.357,32.289 L15.613,32.544 L10.338,37.809 C8.32062045,36.8605156 5.92536738,37.275778 4.345,38.848 L1.545,41.64 C0.548980718,42.6312817 -0.00760733043,43.9807826 -7.69683736e-05,45.386 C-0.00519536126,46.7881016 0.551207819,48.133913 1.545,49.123 L5.045,52.614 C5.34209356,52.9113286 5.74518001,53.0783859 6.1655,53.0783859 C6.58581999,53.0783859 6.98890644,52.9113286 7.286,52.614 C7.90451429,51.9954226 7.90451429,50.9925774 7.286,50.374 L3.786,46.883 C3.3884862,46.4854747 3.16695841,45.945163 3.171,45.383 C3.16829949,44.8230571 3.38933653,44.2852243 3.785,43.889 L6.585,41.096 C7.27271776,40.4123157 8.33641655,40.2818232 9.169,40.779 C9.22741795,40.8667587 9.29441392,40.9484938 9.369,41.023 C9.50046214,41.1550584 9.65457576,41.2624298 9.824,41.34 L25.885,57.378 C25.9624933,57.548902 26.0702232,57.7043989 26.203,57.837 C26.3320314,57.9665742 26.483041,58.0722132 26.649,58.149 C26.9905577,58.5351586 27.1781347,59.0334658 27.176,59.549 C27.1787027,60.1094331 26.9572769,60.6476957 26.561,61.044 L23.761,63.844 C22.9308313,64.6682118 21.5911687,64.6682118 20.761,63.844 L17.266,60.344 C16.9690772,60.0467321 16.5661563,59.8796997 16.146,59.8796997 C15.7258437,59.8796997 15.3229228,60.0467321 15.026,60.344 C14.7286714,60.6410936 14.5616141,61.04418 14.5616141,61.4645 C14.5616141,61.88482 14.7286714,62.2879064 15.026,62.585 L18.526,66.085 C19.5179177,67.0723595 20.8614397,67.6252359 22.261,67.6220141 C23.6614098,67.6245764 25.0055467,67.0710237 25.998,66.083 L28.798,63.283 C29.7921341,62.2937325 30.3485749,60.9474698 30.343,59.545 C30.3463918,58.5529247 30.0690451,57.580131 29.543,56.739 L35.48,50.81 C35.486,50.804 35.492,50.797 35.499,50.791 C36.179,50.091 38.072,50.22 39.899,50.347 C41.2845863,50.4834028 42.6797628,50.4924407 44.067,50.374 L50.567,56.868 C50.1410923,57.6459898 49.9188685,58.5190609 49.921,59.406 C49.9161164,60.807453 50.4725127,62.1525277 51.466,63.141 L54.266,65.941 C55.2552994,66.9336223 56.6005775,67.4892337 58.002,67.484 C59.4036811,67.4890551 60.7492039,66.9334914 61.739,65.941 L78.721,48.981 C79.715159,47.9920781 80.2719308,46.6462462 80.2670345,45.244 C80.2720867,43.8414295 79.7153115,42.4952292 78.721,41.506 Z M36.676,3.348 L43.549,4.648 L39.435,8.76 C38.5262106,8.29268062 37.6945284,7.68864867 36.969,6.969 C35.8486533,6.02983272 35.0365096,4.7755568 34.638,3.369 L34.638,3.369 L34.638,3.369 C34.632,3.304 34.631,3.252 34.631,3.213 C35.315545,3.1275711 36.0101272,3.17441975 36.677,3.351 M28.644,4.643 C29.435801,3.85437322 30.675248,3.73700928 31.601,4.363 C32.2141652,6.2461192 33.3102618,7.93560436 34.78,9.263 C36.0624472,10.5460659 37.6250793,11.5141104 39.345,12.091 C39.615935,12.4807297 39.7604671,12.9443498 39.7590302,13.419 C39.7621532,14.0354626 39.5183428,14.6275221 39.082,15.063 C38.6466591,15.500161 38.0539398,15.7440948 37.437,15.7400507 C36.8192318,15.7433159 36.225943,15.4987239 35.79,15.061 L35.79,15.061 L28.645,7.929 C28.2093163,7.49406 27.9661816,6.9026123 27.9699557,6.287 C27.9661816,5.6713877 28.2093163,5.07994 28.645,4.645 M24.505,11.559 C24.9402496,11.1221956 25.532371,10.8779996 26.149,10.8809727 C26.7671494,10.8782407 27.360661,11.1231363 27.797,11.561 L33.551,17.303 C34.4556389,18.2123276 34.4556389,19.6816724 33.551,20.591 C33.1133002,21.0276904 32.5192782,21.2714194 31.901,21.2680355 C31.2834201,21.2713501 30.6899709,21.0284282 30.252,20.593 L30.252,20.593 L25.887,16.229 L25.866,16.209 L24.5,14.844 C24.0624722,14.4088246 23.8181696,13.8160847 23.8219556,13.199 C23.8200401,12.5833566 24.0649772,11.9926261 24.502,11.559 M20.354,18.471 C20.7908167,18.0349447 21.3837957,17.7915605 22.001,17.794964 C22.6124978,17.7917214 23.2003897,18.0308334 23.636,18.46 L28.014,22.836 C28.4499222,23.2701219 28.6937532,23.8607907 28.6910231,24.476 C28.6937604,25.0921911 28.4491509,25.683721 28.012,26.118 C27.5759868,26.554034 26.9836207,26.7974622 26.367,26.7940364 C25.749596,26.794964 25.1572525,26.5498894 24.721,26.113 L23.134,24.528 L23.134,24.528 L20.357,21.755 C19.9205743,21.3194974 19.6764465,20.7275415 19.6789802,20.111 C19.6764465,19.4944585 19.9205743,18.9025026 20.357,18.467 M17.598,26.767 C18.0352521,26.3300116 18.6288232,26.0856 19.247,26.0879743 C19.8649831,26.0850878 20.4584329,26.3295977 20.895,26.767 L22.484,28.354 C22.9201696,28.7883658 23.1640211,29.3794446 23.1610277,29.995 C23.1637645,30.6116823 22.9187656,31.203643 22.481,31.638 C22.0456591,32.075161 21.4529398,32.3190948 20.836,32.3150507 C20.2177409,32.3183198 19.6240215,32.0733385 19.188,31.635 L18.988,31.435 L18.981,31.427 L18.971,31.419 L17.599,30.051 C16.6934951,29.1428104 16.6934951,27.6731896 17.599,26.765 M49.883,44.777 C49.5860772,44.4797321 49.1831563,44.3126997 48.763,44.3126997 C48.3428437,44.3126997 47.9399228,44.4797321 47.643,44.777 L46.233,46.185 C44.894,47.525 42.467,47.356 40.12,47.193 C37.571,47.016 34.935,46.833 33.23,48.584 L27.394,54.406 L12.801,39.839 L17.965,34.684 C18.8289668,35.2108132 19.8220925,35.4877392 20.834,35.484 C22.2915452,35.4911667 23.6913165,34.9146208 24.721,33.883 C25.756376,32.8559259 26.3363703,31.4563744 26.331,29.998 C26.331,29.984 26.331,29.971 26.331,29.957 L26.372,29.957 C27.827692,29.9632057 29.2254359,29.3871134 30.254,28.357 C31.2891861,27.3297984 31.8691459,25.9303302 31.864,24.472 C31.864,24.458 31.864,24.445 31.864,24.431 L31.906,24.431 C33.363961,24.4367848 34.7640353,23.8609188 35.796,22.831 C36.8342392,21.790667 37.4107807,20.3766989 37.396,18.907 L37.439,18.907 C38.8958472,18.9110883 40.2937548,18.3320478 41.321,17.299 C42.3519859,16.2702001 42.9281871,14.8714716 42.921,13.415 C42.9238668,12.4047826 42.6469714,11.4134972 42.121,10.551 L46.647,6.027 C46.9719539,5.70278708 47.3857122,5.48216239 47.836,5.393 C47.883,5.388 47.93,5.38 47.976,5.371 C48.6981542,5.26874655 49.426591,5.5099557 49.945,6.023 C50.8497548,6.93266994 50.8497548,8.40233006 49.945,9.312 L48.567,10.685 C48.561865,10.6887999 48.5571694,10.6931602 48.553,10.698 L46.965,12.283 C46.3463712,12.9019205 46.3463712,13.9050795 46.965,14.524 C47.5839205,15.1426288 48.5870795,15.1426288 49.206,14.524 L50.59,13.142 L50.59,13.142 L50.799,12.933 C51.7111989,12.0322101 53.1791953,12.0357819 54.087,12.941 C54.5235364,13.3752006 54.7677566,13.9662999 54.765,14.582 C54.7675003,15.1988273 54.5221325,15.7908087 54.084,16.225 L52.697,17.615 L52.697,17.615 L51.121,19.197 C50.8237321,19.4939228 50.6566997,19.8968437 50.6566997,20.317 C50.6566997,20.7371563 50.8237321,21.1400772 51.121,21.437 C51.7381959,22.0568972 52.7410429,22.0591357 53.361,21.442 L54.956,19.853 C55.3919116,19.416694 55.9842567,19.1729143 56.601,19.176 C57.2191494,19.1732407 57.812661,19.4181363 58.249,19.856 C58.6855364,20.2902006 58.9297566,20.8812999 58.927,21.497 C58.9297645,22.1136823 58.6847656,22.705643 58.247,23.14 L55.475,25.906 C55.1777321,26.2029228 55.0106997,26.6058437 55.0106997,27.026 C55.0106997,27.4461563 55.1777321,27.8490772 55.475,28.146 C55.771659,28.4436256 56.1747772,28.6106317 56.595,28.61 C57.0173355,28.6114121 57.4227246,28.4440001 57.721,28.145 L59.075,26.79 L59.099,26.768 C59.5349116,26.331694 60.1272567,26.0879143 60.744,26.091 C61.3616807,26.088132 61.9548034,26.3326556 62.391,26.77 C63.295725,27.6777314 63.295725,29.1462686 62.391,30.054 L61.013,31.43 L61.013,31.43 L61.013,31.43 L58.821,33.616 C58.2023712,34.2349205 58.2023712,35.2380795 58.821,35.857 C59.1177388,36.1552386 59.5212866,36.3226336 59.942,36.322 C60.3621351,36.3221897 60.7650904,36.1552511 61.062,35.858 L62.131,34.79 L67.253,39.906 L52.661,54.484 L47.432,49.262 C47.808179,49.020989 48.157206,48.7400239 48.473,48.424 L49.882,47.017 C50.1792679,46.7200772 50.3463003,46.3171563 50.3463003,45.897 C50.3463003,45.4768437 50.1792679,45.0739228 49.882,44.777 M76.482,46.739 L59.501,63.699 C59.1036397,64.0968805 58.5633076,64.3187769 58.001,64.3150474 C57.4386924,64.3187769 56.8983603,64.0968805 56.501,63.699 L53.701,60.899 C53.3044599,60.5036894 53.0829387,59.9659153 53.0859687,59.406 C53.0838315,58.8462592 53.3052165,58.3088155 53.701,57.913 L70.688,40.957 C71.0853603,40.5591195 71.6256924,40.3372231 72.188,40.3409526 C72.7504522,40.3374878 73.2908048,40.5597528 73.688,40.958 L76.488,43.749 C76.8842769,44.1453043 77.1057027,44.6835669 77.1030245,45.244 C77.1057027,45.8044331 76.8842769,46.3426957 76.488,46.739" id="Path_352"></path>
                                                </g>
                                                <g id="Group_239" transform="translate(11.716000, 0.432000)">
                                                    <path d="M7.239,8.468 C7.53551612,8.76510665 7.93824575,8.93174099 8.358,8.93100436 C8.77868413,8.93198654 9.18243679,8.76537559 9.48,8.468 C9.77732863,8.17090644 9.94438589,7.76781999 9.94438589,7.3475 C9.94438589,6.92718001 9.77732863,6.52409356 9.48,6.227 L3.704,0.463 C3.08370014,-0.154250031 2.08053935,-0.152011832 1.463,0.468 C1.16567137,0.765093557 0.998614108,1.16818001 0.998614108,1.5885 C0.998614108,2.00881999 1.16567137,2.41190644 1.463,2.709 L7.239,8.468 Z" id="Path_353"></path>
                                                </g>
                                                <g id="Group_240" transform="translate(58.327000, 0.432000)">
                                                    <path d="M1.584,8.93101123 C2.00401321,8.93156505 2.40698887,8.76497779 2.704,8.468 L8.473,2.706 C9.09162875,2.0870795 9.09162875,1.0839205 8.473,0.465 C8.17590644,0.167671369 7.77281999,0.000614107628 7.3525,0.000614107628 C6.93218001,0.000614107628 6.52909356,0.167671369 6.232,0.465 L0.464,6.231 C-0.154514293,6.8495774 -0.154514293,7.8524226 0.464,8.471 C0.761377951,8.76706516 1.1643743,8.93258152 1.584,8.93101123" id="Path_354"></path>
                                                </g>
                                                <g id="Group_241" transform="translate(8.288000, 67.678000)">
                                                    <path d="M1.454,0.474 C0.840587128,1.09815271 0.849092489,2.10133774 1.473,2.715 L1.478,2.715 C2.10190066,3.32697193 3.10369291,3.31757174 3.716,2.694 C4.28690615,2.06303904 4.25816666,1.09398194 3.65087177,0.497963084 C3.04357689,-0.0980557711 2.07415138,-0.108630091 1.454,0.474" id="Path_355"></path>
                                                </g>
                                                <g id="Group_242" transform="translate(51.170000, 52.249000)">
                                                    <path d="M2.588,3.17001573 C2.83645011,3.16989903 3.08138816,3.11131944 3.303,2.999 C3.67802436,2.80964402 3.96246357,2.47906103 4.09374012,2.0799803 C4.22501668,1.68089957 4.19237631,1.2460141 4.003,0.871 C3.60867285,0.0907059849 2.65699284,-0.222941258 1.876,0.17 L1.867,0.175 C1.49179866,0.363358276 1.20705576,0.693381863 1.07570292,1.09213155 C0.944350086,1.49088124 0.977202722,1.92552453 1.167,2.3 C1.43756321,2.83581776 1.98775172,3.17266787 2.588,3.17001573" id="Path_356"></path>
                                                </g>
                                            </g>
                                        </g>
                                    </g>
                                </g>
                            </g>
                        </g>
                    </g>
                </g>
            </g>
        </g>
    </g>
</svg>